<svg width="756" height="194" viewBox="0 0 756 194" fill="none" xmlns="http://www.w3.org/2000/svg">
<path d="M27 174.405V112.495C27 103.292 29.231 95.0652 33.693 87.8144C38.2945 80.4242 44.7086 74.6375 52.9355 70.4544C61.3017 66.2713 71.0624 64.1797 82.2174 64.1797C93.3725 64.1797 102.994 66.2713 111.081 70.4544C119.168 74.6375 125.373 80.4242 129.696 87.8144C134.019 95.0652 136.18 103.292 136.18 112.495V174.405H99.7866V114.168C99.7866 110.961 99.0197 108.033 97.4859 105.384C95.9521 102.595 93.7908 100.364 91.002 98.6906C88.3527 97.0173 85.2153 96.1807 81.5899 96.1807C78.104 96.1807 74.8969 97.0173 71.9687 98.6906C69.18 100.364 67.0187 102.595 65.4849 105.384C63.951 108.033 63.1841 110.961 63.1841 114.168V174.405H27Z" fill="white"/>
<path d="M202.397 174.404C191.242 174.404 181.481 172.242 173.115 167.92C164.888 163.597 158.474 157.81 153.873 150.56C149.411 143.309 147.18 135.082 147.18 125.879V63.9688H183.364V124.206C183.364 127.274 184.131 130.202 185.665 132.991C187.198 135.779 189.36 138.01 192.148 139.684C195.077 141.357 198.284 142.193 201.77 142.193C205.395 142.193 208.532 141.357 211.182 139.684C213.97 138.01 216.132 135.779 217.666 132.991C219.199 130.202 219.966 127.274 219.966 124.206V63.9688H256.36V125.879C256.36 135.082 254.198 143.309 249.876 150.56C245.553 157.81 239.348 163.597 231.261 167.92C223.173 172.242 213.552 174.404 202.397 174.404Z" fill="white"/>
<path d="M326.132 174.404C314.42 174.404 304.101 171.963 295.177 167.083C286.393 162.203 279.56 155.44 274.68 146.795C269.8 138.01 267.359 127.692 267.359 115.84V19H303.753V74.0083H304.589C306.82 71.2195 309.4 68.9188 312.328 67.1061C315.256 65.154 318.533 63.7596 322.158 62.9229C325.784 61.9469 329.549 61.4588 333.453 61.4588C343.353 61.4588 352.207 63.7596 360.016 68.361C367.824 72.9625 373.89 79.3766 378.213 87.6034C382.675 95.6908 384.906 105.173 384.906 116.049C384.906 124.694 383.511 132.572 380.722 139.684C378.073 146.655 374.169 152.791 369.01 158.089C363.99 163.249 357.855 167.292 350.604 170.22C343.353 173.009 335.196 174.404 326.132 174.404ZM326.132 142.821C330.594 142.821 334.429 141.775 337.636 139.684C340.983 137.453 343.492 134.455 345.166 130.69C346.978 126.925 347.885 122.672 347.885 117.931C347.885 113.33 346.978 109.216 345.166 105.591C343.492 101.966 340.983 99.1071 337.636 97.0155C334.429 94.7845 330.594 93.669 326.132 93.669C321.949 93.669 318.185 94.7845 314.838 97.0155C311.491 99.1071 308.912 101.966 307.099 105.591C305.286 109.216 304.38 113.33 304.38 117.931C304.38 122.672 305.286 126.925 307.099 130.69C308.912 134.455 311.491 137.453 314.838 139.684C318.185 141.775 321.949 142.821 326.132 142.821Z" fill="white"/>
<path d="M451.124 174.404C439.969 174.404 430.208 172.242 421.842 167.92C413.615 163.597 407.201 157.81 402.599 150.56C398.137 143.309 395.906 135.082 395.906 125.879V63.9688H432.09V124.206C432.09 127.274 432.857 130.202 434.391 132.991C435.925 135.779 438.086 138.01 440.875 139.684C443.803 141.357 447.01 142.193 450.496 142.193C454.122 142.193 457.259 141.357 459.908 139.684C462.697 138.01 464.858 135.779 466.392 132.991C467.926 130.202 468.693 127.274 468.693 124.206V63.9688H505.086V125.879C505.086 135.082 502.925 143.309 498.602 150.56C494.28 157.81 488.075 163.597 479.987 167.92C471.9 172.242 462.279 174.404 451.124 174.404Z" fill="white"/>
<path d="M516.086 174.403V66.6875H552.479V174.403H516.086Z" fill="white"/>
<path d="M563.48 174.403V21.7188H599.665V174.403H563.48Z" fill="white"/>
<path d="M669.437 174.404C660.374 174.404 652.217 173.009 644.966 170.22C637.854 167.292 631.719 163.249 626.56 158.089C621.401 152.791 617.427 146.655 614.638 139.684C611.989 132.572 610.664 124.694 610.664 116.049C610.664 105.173 612.895 95.6908 617.357 87.6034C621.819 79.3766 627.885 72.9625 635.554 68.361C643.362 63.7596 652.217 61.4588 662.117 61.4588C666.16 61.4588 669.925 61.9469 673.411 62.9229C677.037 63.7596 680.313 65.154 683.241 67.1061C686.309 68.9188 688.889 71.2195 690.98 74.0083H691.817V19H728.21V115.84C728.21 127.692 725.77 138.01 720.89 146.795C716.009 155.44 709.177 162.203 700.392 167.083C691.608 171.963 681.289 174.404 669.437 174.404ZM669.437 142.821C673.899 142.821 677.734 141.775 680.941 139.684C684.148 137.453 686.658 134.455 688.47 130.69C690.283 126.925 691.189 122.672 691.189 117.931C691.189 113.33 690.283 109.216 688.47 105.591C686.658 101.966 684.148 99.1071 680.941 97.0155C677.734 94.7845 673.899 93.669 669.437 93.669C665.115 93.669 661.28 94.7845 657.933 97.0155C654.726 99.1071 652.217 101.966 650.404 105.591C648.591 109.216 647.685 113.33 647.685 117.931C647.685 122.672 648.591 126.925 650.404 130.69C652.217 134.455 654.726 137.453 657.933 139.684C661.28 141.775 665.115 142.821 669.437 142.821Z" fill="white"/>
<path d="M659.664 130.257C662.213 133.047 665.294 134.442 668.905 134.442C672.622 134.442 675.703 133.047 678.146 130.257C680.588 127.466 681.81 123.788 681.81 119.221C681.81 114.655 680.588 110.976 678.146 108.186C675.703 105.395 672.622 104 668.905 104C665.294 104 662.213 105.395 659.664 108.186C657.221 110.976 656 114.655 656 119.221C656 123.788 657.221 127.466 659.664 130.257Z" fill="white"/>
<path d="M316.664 130.257C319.213 133.047 322.294 134.442 325.905 134.442C329.622 134.442 332.703 133.047 335.146 130.257C337.588 127.466 338.81 123.788 338.81 119.221C338.81 114.655 337.588 110.976 335.146 108.186C332.703 105.395 329.622 104 325.905 104C322.294 104 319.213 105.395 316.664 108.186C314.221 110.976 313 114.655 313 119.221C313 123.788 314.221 127.466 316.664 130.257Z" fill="white"/>
</svg>
